<svg width="17" height="17" viewBox="0 0 17 17" fill="none" xmlns="http://www.w3.org/2000/svg">
<path d="M8.5625 0.9125C5.9649 0.9125 3.9125 3.53114 3.9125 6.68752C3.9125 9.8439 5.9649 12.4625 8.5625 12.4625C11.1601 12.4625 13.2125 9.8439 13.2125 6.68752C13.2125 3.53114 11.1601 0.9125 8.5625 0.9125ZM8.5625 11.4125C7.58495 11.4125 6.68816 10.8959 6.03099 10.0416C5.37374 9.18713 4.9625 8.00118 4.9625 6.68752C4.9625 5.37385 5.37374 4.1879 6.03099 3.33347C6.68816 2.47914 7.58495 1.9625 8.5625 1.9625C9.54005 1.9625 10.4368 2.47914 11.094 3.33347C11.7513 4.1879 12.1625 5.37385 12.1625 6.68752C12.1625 8.00118 11.7513 9.18713 11.094 10.0416C10.4368 10.8959 9.54005 11.4125 8.5625 11.4125Z" fill="#515151" stroke="#515151" stroke-width="0.3"/>
<path d="M11.9007 11.5277L11.8073 11.4849L11.7337 11.5565C11.5384 11.7465 11.3302 11.9176 11.1123 12.0719L10.9013 12.2214L11.1358 12.3303C11.8518 12.6631 12.4798 12.9396 13.0154 13.1735L13.0155 13.1735C14.0137 13.6092 14.5576 13.8627 14.8542 14.0655C14.9999 14.1651 15.0723 14.2437 15.111 14.3138C15.1484 14.3815 15.1625 14.4558 15.1625 14.5656C15.1625 14.6897 15.0991 14.8421 14.9837 14.9656C14.8696 15.0876 14.7196 15.1656 14.5625 15.1656H2.5625C2.4054 15.1656 2.25536 15.0876 2.14127 14.9656C2.02587 14.8421 1.9625 14.6897 1.9625 14.5656C1.9625 14.4558 1.97656 14.3815 2.014 14.3138C2.05271 14.2437 2.12511 14.1651 2.2708 14.0655C2.56734 13.8627 3.11114 13.6092 4.10926 13.1735L4.10927 13.1735C4.64512 12.9396 5.27313 12.6631 5.98898 12.3303L6.22342 12.2214L6.01246 12.0719C5.79461 11.9176 5.58641 11.7465 5.39107 11.5565L5.31745 11.4849L5.22407 11.5277C4.64973 11.7905 4.14458 12.0111 3.7008 12.2049C3.54241 12.2741 3.39183 12.3398 3.24872 12.4029C2.707 12.6415 2.26929 12.8425 1.92823 13.0406C1.58718 13.2387 1.33016 13.4408 1.15993 13.6876C0.987043 13.9382 0.9125 14.2218 0.9125 14.5656C0.9125 15.3934 1.6462 16.2156 2.5625 16.2156H14.5625C15.4788 16.2156 16.2125 15.3934 16.2125 14.5656C16.2125 14.2218 16.138 13.9382 15.9651 13.6876C15.7948 13.4408 15.5378 13.2387 15.1967 13.0406C14.8557 12.8425 14.4179 12.6415 13.8762 12.4029C13.733 12.3398 13.5824 12.274 13.4239 12.2049C12.9802 12.0111 12.475 11.7905 11.9007 11.5277Z" fill="#515151" stroke="#515151" stroke-width="0.3"/>
</svg>
