<svg width="18" height="18" viewBox="0 0 18 18" fill="none" xmlns="http://www.w3.org/2000/svg">
<path d="M14.8333 8.35938H3.16667C2.24619 8.35938 1.5 9.03095 1.5 9.85938V15.1094C1.5 15.9378 2.24619 16.6094 3.16667 16.6094H14.8333C15.7538 16.6094 16.5 15.9378 16.5 15.1094V9.85938C16.5 9.03095 15.7538 8.35938 14.8333 8.35938Z" stroke="#515151" stroke-width="1.3" stroke-linecap="round" stroke-linejoin="round"/>
<path d="M4.83594 8.35937V5.35937C4.83594 4.36481 5.27492 3.41099 6.05633 2.70772C6.83773 2.00446 7.89754 1.60938 9.0026 1.60938C10.1077 1.60938 11.1675 2.00446 11.9489 2.70772C12.7303 3.41099 13.1693 4.36481 13.1693 5.35937V8.35937" stroke="#515151" stroke-width="1.3" stroke-linecap="round" stroke-linejoin="round"/>
</svg>
