<svg width="55" height="56" viewBox="0 0 55 56" fill="none" xmlns="http://www.w3.org/2000/svg">
<path d="M21.3731 44.4258C23.6337 44.4258 26.3568 44.3487 29.0542 44.0661C29.8505 50.4883 35.348 55.4719 41.9757 55.4719C49.1687 55.4719 55 49.6405 55 42.4477C55 35.2548 49.1686 29.4234 41.9757 29.4234C40.8968 29.4234 39.8435 29.5519 38.8417 29.8088C35.8105 27.2142 31.4433 25.082 27.1276 24.0031V22.9498C27.1276 22.847 27.2304 22.7957 27.2561 22.77C30.4929 20.5352 32.4195 16.7331 32.4195 12.5715C32.4195 5.91806 27.4616 0.523438 21.3733 0.523438C15.285 0.523438 10.327 5.94376 10.327 12.5715C10.327 16.7331 12.2537 20.5609 15.4904 22.77C15.5161 22.7957 15.6189 22.8728 15.6189 22.9498V24.0031C7.93792 25.9298 0 31.2217 0 36.3852C0.0257012 43.3725 13.4096 44.4258 21.3731 44.4258ZM41.9757 31.5813C47.9613 31.5813 52.8165 36.4365 52.8165 42.4221C52.8165 48.4077 47.9614 53.2629 41.9757 53.2629C36.4526 53.2629 31.8801 49.127 31.2121 43.7836C31.16 43.3316 31.1343 42.877 31.135 42.4221C31.135 42.1395 31.1607 41.8569 31.1607 41.5743C31.4947 37.2586 34.3718 33.6107 38.3022 32.1979C39.0729 31.9153 39.8693 31.7355 40.717 31.6327C41.128 31.607 41.5647 31.5813 41.9757 31.5813ZM16.9547 25.9041L17.8024 25.7243V22.9243C17.8024 22.1536 17.3915 21.4086 16.7492 20.9463C14.1032 19.1224 12.5362 15.9883 12.5362 12.546C12.5362 7.09994 16.518 2.65576 21.3988 2.65576C26.2797 2.65576 30.2615 7.09994 30.2615 12.546C30.2615 15.9883 28.6945 19.1481 26.0485 20.9463C25.3807 21.4086 24.9953 22.1536 24.9953 22.9243V25.7243L25.843 25.9041C29.9019 26.8033 33.7552 28.5758 36.5039 30.6309C32.2395 32.6345 29.234 36.8989 29.0028 41.8569C26.5623 42.1138 23.9677 42.2423 21.3988 42.2423C12.1251 42.2423 2.20918 40.701 2.20918 36.3595C2.2093 32.5833 9.22235 27.5996 16.9547 25.9041Z" fill="black" fill-opacity="0.25"/>
<path d="M37.585 39.8297C37.8162 40.5489 38.3043 41.1141 38.9208 41.5765C39.7686 42.193 40.8219 42.6297 41.7723 42.9894C43.031 43.4775 44.4697 44.0427 44.4697 44.6849C44.4697 46.2006 43.3136 46.74 42.2091 46.74C40.7962 46.74 39.486 45.8409 39.486 45.1473C39.486 44.5564 38.998 44.0684 38.4071 44.0684C37.8162 44.0684 37.3281 44.5564 37.3281 45.1473C37.3281 46.9455 39.0237 48.3071 40.8988 48.7694V49.7713C40.8988 50.3622 41.3869 50.8502 41.9778 50.8502C42.5687 50.8502 43.0567 50.3622 43.0567 49.7713V48.8721C45.1889 48.5381 46.6275 46.9197 46.6275 44.7105C46.6275 42.5783 44.4696 41.7306 42.5685 40.9856C41.9263 40.7287 41.3612 40.4975 40.873 40.2663C40.1024 39.8809 39.6143 39.47 39.6143 38.9562C39.6143 38.8021 39.6657 37.3892 41.8749 37.3892C42.1574 37.3892 42.3886 37.4149 42.5941 37.4663C44.0583 37.8003 44.1097 39.2131 44.1097 39.2131C44.1097 39.804 44.5978 40.292 45.1887 40.292C45.7796 40.292 46.2676 39.804 46.2676 39.2131C46.2676 37.7744 45.2658 35.8479 43.0308 35.3341V34.3836C43.0308 33.7928 42.5427 33.3047 41.9518 33.3047H41.8233C41.2839 33.3561 40.8472 33.8185 40.8472 34.3836V35.3084C40.6674 35.3341 40.5132 35.3598 40.3591 35.4112C38.2269 35.9764 37.4049 37.7232 37.4049 38.9819C37.4565 39.2645 37.5079 39.5728 37.585 39.8297Z" fill="black" fill-opacity="0.25"/>
</svg>
